<svg xmlns="http://www.w3.org/2000/svg" viewBox="0 0 900 640" role="img" aria-labelledby="title desc">
  <title id="title">风险投资指数法则可视化</title>
  <desc id="desc">资本、人才、技术和少数超级赢家组成的展示插画</desc>
  <rect width="900" height="640" rx="24" fill="#ffffff"/>
  <rect x="58" y="74" width="784" height="492" rx="18" fill="#f3f6f8" stroke="#dfe4e8"/>
  <path d="M104 482 C198 462 240 410 288 372 C340 330 382 334 430 292 C486 244 516 188 590 154 C660 121 732 120 790 92" fill="none" stroke="#1f6feb" stroke-width="10" stroke-linecap="round"/>
  <path d="M104 482 C198 462 240 410 288 372 C340 330 382 334 430 292 C486 244 516 188 590 154 C660 121 732 120 790 92 L790 516 L104 516 Z" fill="#1f6feb" opacity=".08"/>
  <g fill="#17202a">
    <circle cx="104" cy="482" r="11"/>
    <circle cx="288" cy="372" r="11"/>
    <circle cx="430" cy="292" r="11"/>
    <circle cx="590" cy="154" r="11"/>
    <circle cx="790" cy="92" r="14"/>
  </g>
  <g font-family="Microsoft YaHei, Arial, sans-serif" font-size="22" font-weight="700" fill="#17202a">
    <text x="86" y="548">失败</text>
    <text x="250" y="548">存活</text>
    <text x="388" y="548">增长</text>
    <text x="548" y="548">突破</text>
    <text x="724" y="548">超级赢家</text>
  </g>
  <g font-family="Microsoft YaHei, Arial, sans-serif" font-size="18" fill="#5a6675">
    <text x="104" y="120">Power Law</text>
    <text x="104" y="150">少数异常值决定整体回报</text>
  </g>
  <g>
    <rect x="108" y="196" width="166" height="76" rx="10" fill="#ffffff" stroke="#dfe4e8"/>
    <rect x="298" y="126" width="166" height="76" rx="10" fill="#ffffff" stroke="#dfe4e8"/>
    <rect x="520" y="360" width="166" height="76" rx="10" fill="#ffffff" stroke="#dfe4e8"/>
    <text x="132" y="240" font-family="Microsoft YaHei, Arial, sans-serif" font-size="20" font-weight="700" fill="#1a7f64">资本</text>
    <text x="322" y="170" font-family="Microsoft YaHei, Arial, sans-serif" font-size="20" font-weight="700" fill="#a05a00">人才网络</text>
    <text x="544" y="404" font-family="Microsoft YaHei, Arial, sans-serif" font-size="20" font-weight="700" fill="#b42318">技术实验</text>
  </g>
</svg>
